<?xml version="1.0" standalone="no"?>
<!DOCTYPE svg PUBLIC "-//W3C//DTD SVG 20010904//EN"
 "http://www.w3.org/TR/2001/REC-SVG-20010904/DTD/svg10.dtd">
<svg version="1.0" xmlns="http://www.w3.org/2000/svg"
 width="260.000000pt" height="260.000000pt" viewBox="0 0 260.000000 260.000000"
 preserveAspectRatio="xMidYMid meet">
<metadata>
Created by potrace 1.14, written by Peter Selinger 2001-2017
</metadata>
<g transform="translate(0.000000,260.000000) scale(0.100000,-0.100000)"
fill="#000000" stroke="none">
<path d="M0 2357 l0 -245 88 -16 c48 -9 98 -18 112 -21 14 -3 61 -12 105 -20
44 -8 125 -23 180 -34 55 -10 116 -22 135 -25 44 -7 77 -13 165 -31 39 -8 86
-17 105 -20 19 -3 85 -15 145 -26 61 -12 121 -23 135 -25 14 -2 35 -7 48 -9
19 -5 260 -50 422 -80 54 -10 246 -46 348 -66 59 -11 143 -27 187 -35 44 -7
91 -16 105 -19 14 -3 52 -10 85 -16 90 -15 100 -17 100 -19 0 -2 4 -2 88 -15
l47 -8 0 241 c0 220 -1 241 -17 246 -16 5 -119 25 -208 41 -16 2 -41 7 -55 10
-14 3 -61 12 -105 19 -94 17 -289 54 -325 61 -14 3 -36 7 -50 10 -14 3 -50 9
-80 15 -30 6 -66 12 -80 15 -14 3 -50 9 -80 15 -30 6 -66 12 -80 15 -29 6
-244 45 -280 51 -14 3 -68 13 -120 24 -52 10 -146 28 -207 39 -62 12 -164 30
-225 42 -62 11 -156 29 -208 39 -52 11 -111 22 -130 25 -19 3 -57 10 -85 15
-27 5 -68 13 -90 16 -22 3 -42 7 -45 9 -3 2 -26 6 -50 10 -25 3 -53 8 -62 11
-17 5 -18 -11 -18 -239z"/>
<path d="M1401 2596 c2 -2 23 -6 47 -10 24 -3 60 -10 80 -15 20 -5 51 -12 67
-15 17 -2 122 -23 235 -45 113 -23 216 -44 230 -46 14 -3 104 -21 200 -41 192
-39 203 -41 240 -48 14 -2 42 -7 63 -11 l37 -7 0 121 0 121 -602 0 c-331 0
-599 -2 -597 -4z"/>
<path d="M0 1546 l0 -244 28 -6 c40 -9 157 -31 219 -42 16 -2 39 -7 53 -9 14
-3 39 -8 55 -11 17 -2 75 -14 130 -24 122 -24 364 -70 402 -76 15 -2 37 -6 49
-9 12 -3 39 -7 60 -10 21 -4 46 -8 56 -11 9 -3 40 -9 70 -14 77 -13 107 -19
158 -30 25 -5 97 -18 160 -30 63 -11 135 -25 160 -30 25 -5 83 -16 130 -24 47
-9 96 -18 110 -20 22 -4 81 -16 160 -31 28 -5 241 -45 280 -51 14 -3 57 -11
95 -19 39 -8 84 -16 100 -19 17 -3 51 -10 78 -14 l47 -9 0 242 0 243 -27 6
c-39 9 -154 30 -223 42 -14 3 -84 16 -157 30 -73 14 -145 27 -160 30 -15 3
-86 16 -158 29 -71 14 -141 27 -155 29 -14 3 -27 5 -30 6 -3 1 -9 3 -15 4 -53
9 -115 20 -195 36 -52 11 -122 24 -155 30 -33 5 -71 12 -85 15 -38 8 -142 27
-170 31 -14 2 -36 7 -50 10 -14 3 -38 8 -55 11 -16 2 -61 10 -100 18 -38 8
-86 17 -105 20 -19 3 -53 10 -75 15 -22 5 -56 11 -75 14 -19 3 -60 10 -90 16
-30 6 -71 13 -90 16 -19 3 -41 7 -49 10 -8 2 -30 7 -50 10 -20 3 -67 11 -106
19 -38 8 -83 16 -100 19 -48 9 -89 17 -107 22 -17 5 -18 -11 -18 -240z"/>
<path d="M0 730 c0 -184 3 -242 13 -245 6 -2 28 -6 47 -9 19 -3 46 -8 60 -11
24 -5 114 -22 340 -64 58 -11 121 -22 140 -26 19 -3 46 -8 60 -10 41 -9 71
-14 160 -31 47 -9 94 -18 105 -20 11 -2 47 -9 80 -15 71 -12 252 -46 315 -59
25 -5 83 -16 130 -25 47 -8 96 -18 110 -20 14 -3 61 -12 105 -20 44 -8 177
-33 295 -55 118 -22 251 -47 295 -55 44 -8 89 -17 100 -19 11 -2 61 -11 110
-21 50 -9 100 -19 113 -22 l22 -5 0 244 0 245 -92 17 c-51 10 -104 20 -118 22
-33 6 -313 59 -475 90 -127 25 -398 76 -502 95 -226 40 -305 55 -378 69 -27 6
-111 22 -185 35 -132 25 -254 48 -315 60 -16 3 -77 14 -135 25 -138 24 -265
49 -317 61 -90 20 -83 40 -83 -231z"/>
<path d="M0 120 l0 -120 598 1 c328 0 593 2 587 4 -12 5 -1167 235 -1177 235
-5 0 -8 -54 -8 -120z"/>
</g>
</svg>
